<svg xmlns="http://www.w3.org/2000/svg" viewBox="0 0 1200 420" role="img" aria-labelledby="title desc">
<title id="title">Paulina Lagos</title>
<desc id="desc">Logo de Paulina Lagos Nutricionista</desc>
<defs>
<linearGradient id="brand" x1="0" y1="0" x2="1" y2="1">
<stop offset="0" stop-color="#B98BE4"/>
<stop offset="1" stop-color="#6DBCEB"/>
</linearGradient>
<linearGradient id="blue" x1="0" y1="0" x2="1" y2="1">
<stop offset="0" stop-color="#8ECBF0"/>
<stop offset="1" stop-color="#5FAFE2"/>
</linearGradient>
</defs>
<rect width="1200" height="420" fill="#fff"/>
<g transform="translate(420 20)">
<path d="M103 55c75-61 189-55 257 9" fill="none" stroke="url(#brand)" stroke-width="10" stroke-linecap="round" opacity=".9"/>
<path d="M94 58c-77 71-84 193-13 271 55 61 144 77 215 40" fill="none" stroke="url(#blue)" stroke-width="10" stroke-linecap="round" opacity=".9"/>
<path d="M132 122c46-60 119-50 129-11 12 47-92 100-95 190-45-51-52-119-34-179z" fill="#B991E4" opacity=".85"/>
<path d="M135 237c23-58 115-85 124-139 17 60-103 90-92 210" fill="none" stroke="#fff" stroke-width="9" stroke-linecap="round"/>
<path d="M255 116c26 26 20 75-8 100 27 13 43 45 36 80" fill="none" stroke="#A783DA" stroke-width="7" stroke-linecap="round"/>
<path d="M282 130c31 2 44 31 39 58" fill="none" stroke="#9D86D8" stroke-width="6" stroke-linecap="round"/>
<path d="M294 194c16 8 31 9 48 0" fill="none" stroke="#9D86D8" stroke-width="6" stroke-linecap="round"/>
<circle cx="305" cy="171" r="5" fill="#9D86D8"/>
<text x="385" y="260" font-family="Georgia, 'Times New Roman', serif" font-size="188" fill="#75BCE9">P</text>
<path d="M512 260c55-20 102-62 132-120" fill="none" stroke="#65B5E6" stroke-width="10" stroke-linecap="round"/>
<path d="M589 203c-8-37 0-67 24-92 12 35 4 64-24 92z" fill="#6DBCEB" opacity=".9"/>
<path d="M621 220c32-30 64-43 100-38-17 31-50 45-100 38z" fill="#6DBCEB" opacity=".9"/>
<path d="M586 259c34-25 68-33 102-22-22 28-55 36-102 22z" fill="#6DBCEB" opacity=".9"/>
<path d="M541 290c34-20 66-24 96-10-24 23-55 27-96 10z" fill="#6DBCEB" opacity=".9"/>
<circle cx="483" cy="87" r="9" fill="#B991E4"/>
<circle cx="504" cy="119" r="8" fill="#B991E4"/>
<circle cx="519" cy="153" r="8" fill="#B991E4"/>
</g>
<text x="252" y="360" font-family="Georgia, 'Times New Roman', serif" font-size="120" fill="#B991E4">Paulina</text>
<text x="668" y="362" font-family="'Brush Script MT', 'Segoe Script', cursive" font-size="104" fill="#6DBCEB">Lagos</text>
</svg>
